<?xml version="1.0" encoding="utf-8"?>
<!-- Generator: Adobe Illustrator 22.1.0, SVG Export Plug-In . SVG Version: 6.00 Build 0)  -->
<svg version="1.1" id="Layer_1" xmlns="http://www.w3.org/2000/svg" xmlns:xlink="http://www.w3.org/1999/xlink" x="0px" y="0px"
	 viewBox="0 0 674 674" style="enable-background:new 0 0 674 674;" xml:space="preserve">
<style type="text/css">
	.st0{fill:#757575;}
	.st1{fill:#FFFFFF;}
</style>
<g>
	<circle class="st0" cx="337" cy="337" r="337"/>
</g>
<g>
	<path class="st1" d="M190.6,372.6h-60.4v119.8H76.1V180.8h109.6c36,0,63.7,8.1,83.3,24.2s29.3,39.5,29.3,70
		c0,20.8-5,38.3-15.1,52.4s-24.1,24.9-42.1,32.4l70,129.8v2.8h-58L190.6,372.6z M130.2,328.9h55.6c18.3,0,32.5-4.6,42.8-13.8
		c10.3-9.2,15.4-21.8,15.4-37.8c0-16.7-4.7-29.6-14.2-38.7c-9.5-9.1-23.6-13.8-42.5-14.1h-57.1V328.9z"/>
	<path class="st1" d="M439.1,357.8l-35.3,37.5v97.2h-54.1V180.8h54.1V327l30-37l91.2-109.1h65.5l-115.8,138L597,492.5h-64.2
		L439.1,357.8z"/>
</g>
</svg>
