<?xml version="1.0" encoding="utf-8"?>
<!-- Generator: Adobe Illustrator 22.1.0, SVG Export Plug-In . SVG Version: 6.00 Build 0)  -->
<svg version="1.1" id="Layer_1" xmlns="http://www.w3.org/2000/svg" xmlns:xlink="http://www.w3.org/1999/xlink" x="0px" y="0px"
	 viewBox="0 0 492 492" style="enable-background:new 0 0 492 492;" xml:space="preserve">
<style type="text/css">
	.st0{fill:#D00017;}
</style>
<path class="st0" d="M57.9,280.5l-22.2-22.2c-9.4-9.4-9.4-24.6,0-33.9L230,30c9.4-9.4,24.6-9.4,33.9,0l194.3,194.3
	c9.4,9.4,9.4,24.6,0,33.9L436,280.4c-9.5,9.5-25,9.3-34.3-0.4L287,159.6V447c0,13.3-10.7,24-24,24h-32c-13.3,0-24-10.7-24-24V159.6
	L92.2,280.1C82.9,289.9,67.4,290.1,57.9,280.5z"/>
</svg>
