<?xml version="1.0" encoding="utf-8"?>
<!-- Generator: Adobe Illustrator 22.1.0, SVG Export Plug-In . SVG Version: 6.00 Build 0)  -->
<svg version="1.1" id="Layer_1" xmlns="http://www.w3.org/2000/svg" xmlns:xlink="http://www.w3.org/1999/xlink" x="0px" y="0px"
	 viewBox="0 0 674 674" style="enable-background:new 0 0 674 674;" xml:space="preserve">
<style type="text/css">
	.st0{fill:#050505;}
	.st1{fill:#FCFCFC;}
</style>
<g>
	<circle class="st0" cx="337" cy="337" r="337"/>
</g>
<path class="st1" d="M660.7,431h-78.3c-7.2,0-13.8-3.8-17.4-10L460.2,242.2c-7.7-13.1-26.5-13.3-34.5-0.4L314,421.5
	c-3.7,5.9-10.2,9.5-17.1,9.5h-119c-15.7,0-25.4-17.2-17.3-30.6l176.1-291.8c8.1-13.4-1.6-30.6-17.3-30.6h-198
	c-34.2,28.5-62.7,63.7-83.5,103.5c1.4,0.3,2.8,0.5,4.2,0.5h93c15.7,0,25.4,17.2,17.3,30.6L15.8,439.1c11,34.8,27.6,67.1,48.5,95.9
	h290.4c7,0,13.5-3.6,17.1-9.5l60.5-97.4c3.8-6.1,12.7-6,16.4,0.2l56.7,96.7c3.6,6.2,10.2,10,17.4,10h86.9
	C632.3,503.9,649.7,468.8,660.7,431z"/>
</svg>
