<?xml version="1.0" encoding="utf-8"?>
<!-- Generator: Adobe Illustrator 22.1.0, SVG Export Plug-In . SVG Version: 6.00 Build 0)  -->
<svg version="1.1" id="Layer_1" focusable="false" xmlns="http://www.w3.org/2000/svg" xmlns:xlink="http://www.w3.org/1999/xlink"
	 x="0px" y="0px" viewBox="0 0 512 512" style="enable-background:new 0 0 512 512;" xml:space="preserve">
<style type="text/css">
	.st0{fill:#004FB8;}
</style>
<g>
	<circle class="st0" cx="396.2" cy="128.5" r="19.1"/>
	<circle class="st0" cx="345.2" cy="128.5" r="19.1"/>
	<circle class="st0" cx="396.2" cy="256" r="19.1"/>
	<circle class="st0" cx="345.2" cy="256" r="19.1"/>
	<circle class="st0" cx="396.2" cy="383.5" r="19.1"/>
	<circle class="st0" cx="345.2" cy="383.5" r="19.1"/>
	<path class="st0" d="M434.5,196h-357c-23.2,0-42-18.8-42-42v-51c0-23.2,18.8-42,42-42h357c23.2,0,42,18.8,42,42v51
		C476.5,177.2,457.7,196,434.5,196z M77.5,94c-5,0-9,4-9,9v51c0,5,4,9,9,9h357c5,0,9-4,9-9v-51c0-5-4-9-9-9H77.5z"/>
	<path class="st0" d="M434.5,323.5h-357c-23.2,0-42-18.8-42-42v-51c0-23.2,18.8-42,42-42h357c23.2,0,42,18.8,42,42v51
		C476.5,304.7,457.7,323.5,434.5,323.5z M77.5,221.5c-5,0-9,4-9,9v51c0,5,4,9,9,9h357c5,0,9-4,9-9v-51c0-5-4-9-9-9H77.5z"/>
	<path class="st0" d="M434.5,451h-357c-23.2,0-42-18.8-42-42v-51c0-23.2,18.8-42,42-42h357c23.2,0,42,18.8,42,42v51
		C476.5,432.2,457.7,451,434.5,451z M77.5,349c-5,0-9,4-9,9v51c0,5,4,9,9,9h357c5,0,9-4,9-9v-51c0-5-4-9-9-9H77.5z"/>
</g>
</svg>
